<svg width="512" height="512" viewBox="0 0 512 512" fill="none" xmlns="http://www.w3.org/2000/svg">
<path d="M0 102H512V410.513H0V102Z" fill="black"/>
<path fill-rule="evenodd" clip-rule="evenodd" d="M256.127 162.288L256.095 162.32L351.227 257.452L446.359 162.32V352.552H256.095V162.288H256.127Z" fill="white"/>
<path fill-rule="evenodd" clip-rule="evenodd" d="M237.137 289.765C223.9 326.382 188.828 352.552 147.645 352.552C95.1049 352.552 52.5129 309.96 52.5129 257.42C52.5129 204.88 95.1049 162.288 147.645 162.288C188.111 162.288 222.677 187.555 236.426 223.173H187.576C178.19 210.418 163.726 202.244 147.498 202.244C119.208 202.244 96.2739 227.089 96.2739 257.737C96.2739 288.386 119.208 313.231 147.498 313.231C164.777 313.231 180.058 303.963 189.336 289.765H237.137Z" fill="#FFC042"/>
</svg>
