<svg xmlns="http://www.w3.org/2000/svg" width="512" height="512" fill="none"><path fill="#000" d="M0 102h512v308.513H0z"/><path fill-rule="evenodd" clip-rule="evenodd" d="M256.127 162.288l-.032.032 95.132 95.132 95.132-95.132v190.232H256.095V162.288h.032z" fill="#7BBB7D"/><path fill-rule="evenodd" clip-rule="evenodd" d="M237.137 289.765c-13.237 36.617-48.309 62.787-89.492 62.787-52.54 0-95.132-42.592-95.132-95.132 0-52.54 42.592-95.132 95.132-95.132 40.466 0 75.032 25.267 88.781 60.885h-48.85c-9.386-12.755-23.85-20.929-40.078-20.929-28.29 0-51.224 24.845-51.224 55.493 0 30.649 22.934 55.494 51.224 55.494 17.279 0 32.56-9.268 41.838-23.466h47.801z" fill="#719873"/></svg>