<svg width="100" height="100" viewBox="0 0 100 100" fill="none" xmlns="http://www.w3.org/2000/svg">
<path d="M50 8.33325C44.5282 8.33325 39.1101 9.41099 34.0548 11.5049C28.9996 13.5989 24.4063 16.668 20.5372 20.5371C12.7232 28.3512 8.33331 38.9492 8.33331 49.9999C8.33331 68.4166 20.2916 84.0416 36.8333 89.5833C38.9166 89.9166 39.5833 88.6249 39.5833 87.4999V80.4582C28.0416 82.9582 25.5833 74.8749 25.5833 74.8749C23.6666 70.0416 20.9583 68.7499 20.9583 68.7499C17.1666 66.1666 21.25 66.2499 21.25 66.2499C25.4166 66.5416 27.625 70.5416 27.625 70.5416C31.25 76.8749 37.375 74.9999 39.75 73.9999C40.125 71.2916 41.2083 69.4583 42.375 68.4166C33.125 67.3749 23.4166 63.7916 23.4166 47.9166C23.4166 43.2916 25 39.5833 27.7083 36.6249C27.2916 35.5833 25.8333 31.2499 28.125 25.6249C28.125 25.6249 31.625 24.4999 39.5833 29.8749C42.875 28.9583 46.4583 28.4999 50 28.4999C53.5416 28.4999 57.125 28.9583 60.4166 29.8749C68.375 24.4999 71.875 25.6249 71.875 25.6249C74.1666 31.2499 72.7083 35.5833 72.2916 36.6249C75 39.5833 76.5833 43.2916 76.5833 47.9166C76.5833 63.8333 66.8333 67.3332 57.5416 68.3749C59.0416 69.6666 60.4166 72.2083 60.4166 76.0833V87.4999C60.4166 88.6249 61.0833 89.9583 63.2083 89.5833C79.75 83.9999 91.6666 68.4166 91.6666 49.9999C91.6666 44.5282 90.5889 39.11 88.495 34.0548C86.401 28.9995 83.3319 24.4062 79.4628 20.5371C75.5937 16.668 71.0004 13.5989 65.9451 11.5049C60.8899 9.41099 55.4717 8.33325 50 8.33325Z" fill="black"/>
</svg>
